<svg xmlns="http://www.w3.org/2000/svg" xmlns:xlink="http://www.w3.org/1999/xlink" width="296.631" height="61.3063" viewBox="0 0 296.631 61.3063"><defs><style>.a{fill:none;}.b{clip-path:url(#a);}.c{fill:#fff;}</style><clipPath id="a" transform="translate(-0.1845 -0.0972)"><rect class="a" width="297" height="61.5"/></clipPath></defs><title>JT logo white</title><g class="b"><g class="b"><path class="c" d="M32.5509.1458c-16.904.943-31.374,15.412-32.318,32.313-.943,16.906,11.994,29.841,28.899,28.896,16.901-.944,31.369-15.411,32.313-32.316.946-16.9-11.992-29.838-28.894-28.893m17.095,30.946A25.8,25.8,0,0,1,25.8769,54.86c-12.435.694-21.95-8.82-21.256-21.252a25.8015,25.8015,0,0,1,23.771-23.771c12.432-.695,21.949,8.82,21.254,21.255" transform="translate(-0.1845 -0.0972)"/><path class="c" d="M26.0419,17.8486a18.7119,18.7119,0,0,0-17.236,17.24,14.2832,14.2832,0,0,0,15.412,15.41,18.7063,18.7063,0,0,0,17.238-17.233,14.2891,14.2891,0,0,0-15.414-15.417m-3.186,28.835A9.81,9.81,0,0,1,12.2739,36.1a12.8429,12.8429,0,0,1,11.834-11.834,9.8068,9.8068,0,0,1,10.581,10.582,12.8463,12.8463,0,0,1-11.833,11.836" transform="translate(-0.1845 -0.0972)"/><path class="c" d="M23.1547,31.3663a5.5965,5.5965,0,0,0-5.157,5.155,4.2749,4.2749,0,0,0,4.611,4.613,5.6012,5.6012,0,0,0,5.157-5.159,4.2738,4.2738,0,0,0-4.611-4.609" transform="translate(-0.1845 -0.0972)"/><path class="c" d="M84.8788,35.543c0,5.394-1.487,10.498-9.886,10.498-4.899,0-8.486-2.14-9.492-6.792l6.255-1.441a3.1223,3.1223,0,0,0,3.062,2.551c3.193,0,3.237-3.334,3.237-5.516V16.152h6.824Z" transform="translate(-0.1845 -0.0972)"/><path class="c" d="M102.8642,15.5979c9.535,0,16.482,5.97,16.482,15.315s-6.947,15.315-16.482,15.315-16.483-5.97-16.483-15.315,6.947-15.315,16.483-15.315m0,24.702c5.738,0,9.492-3.953,9.492-9.387s-3.754-9.386-9.492-9.386-9.492,3.952-9.492,9.386,3.753,9.387,9.492,9.387" transform="translate(-0.1845 -0.0972)"/><path class="c" d="M121.004,16.1524h11.364c5.337,0,11.147,1.076,11.147,7.45,0,3.269-2.109,5.504-5.25,6.456v.083c4.003.496,6.671,3.352,6.671,7.159,0,6.125-6.026,8.154-11.45,8.154H121.004Zm6.824,11.641h4.722c2.006,0,4.096-.798,4.096-3.071,0-2.352-2.341-2.95-4.388-2.95h-4.43Zm0,12.443h6.219c2.177,0,4.62-.89,4.62-3.518,0-2.838-3.331-3.306-5.597-3.306h-5.242Z" transform="translate(-0.1845 -0.0972)"/><polygon class="c" points="153.333 22.077 144.503 22.077 144.503 16.457 168.587 16.457 168.587 22.077 160.157 22.077 160.157 45.357 153.333 45.357 153.333 22.077"/><path class="c" d="M174.6025,16.1519h5.595l13.36,29.302h-7.892l-2.565-6.02h-11.57l-2.48,6.02H161.33Zm2.604,8.604-3.71,9.058h7.464Z" transform="translate(-0.1845 -0.0972)"/><path class="c" d="M194.861,16.1527h11.987c6.343,0,11.68,2.069,11.68,8.897a7.6444,7.6444,0,0,1-6.693,8.029l7.874,12.375h-8.324l-6.38-11.64h-3.32v11.64h-6.824Zm6.824,12.443h4.088c2.531,0,5.817-.085,5.817-3.349,0-3.008-2.842-3.474-5.374-3.474h-4.531Z" transform="translate(-0.1845 -0.0972)"/><path class="c" d="M248.2465,43.4268a28.0648,28.0648,0,0,1-12.715,2.799c-9.462,0-16.353-5.969-16.353-15.315,0-9.344,6.891-15.315,16.353-15.315,4.795,0,9.031,1.03,12.071,3.747l-4.709,4.94c-1.797-1.811-3.98-2.758-7.362-2.758a8.965,8.965,0,0,0-9.418,9.386,8.9647,8.9647,0,0,0,9.418,9.387,13.5036,13.5036,0,0,0,6.293-1.44v-4.643h-5.62v-6.02h12.042Z" transform="translate(-0.1845 -0.0972)"/><polygon class="c" points="250.07 16.055 270.942 16.055 270.942 22.076 256.893 22.076 256.893 27.696 270.942 27.696 270.942 33.315 256.893 33.315 256.893 39.336 270.942 39.336 270.942 45.357 250.07 45.357 250.07 16.055"/><polygon class="c" points="280.977 22.077 272.547 22.077 272.547 16.457 296.631 16.457 296.631 22.077 287.8 22.077 287.8 45.357 280.977 45.357 280.977 22.077"/></g></g></svg>